# xmcd
#
# Track frame offsets:
#	150
#	18690
#	37093
#	50909
#	68553
#	89200
#	113085
#	135803
#	153811
#	176637
#	198046
#	213145
#	232095
#	251448
#	269891
#
# Disc length: 3792 seconds
#
# Revision: 0
# Processed by: cddbd v1.5.2PL0 Copyright (c) Steve Scherf et al.
# Submitted via: dBpowerAMP V4.0
#
DISCID=d60ece0f
DTITLE=Suzan Kardeþ - Bekriya
DYEAR=1900
DGENRE=National Folk
TTITLE0=Bir Kizil Gonca
TTITLE1=Bulbul ve Gul
TTITLE2=Korfezde Aksam
TTITLE3=Yuce Dagdan Esen Ruzgar
TTITLE4=Kapildim Gidiyorum
TTITLE5=Meyleyelim Kosku
TTITLE6=Daglar Daglar Viran
TTITLE7=Yarim Istanbulu Mesken Mi Tuttun
TTITLE8=Bir dalda iki kiraz
TTITLE9=Ayagina giymis sedef naili
TTITLE10=Sahane Gozler Sahane
TTITLE11=Gelin Alayi
TTITLE12=Batan Gun Kana Benziyor
TTITLE13=Prozit
TTITLE14=Kir Cicegi
EXTD=
EXTT0=
EXTT1=
EXTT2=
EXTT3=
EXTT4=
EXTT5=
EXTT6=
EXTT7=
EXTT8=
EXTT9=
EXTT10=
EXTT11=
EXTT12=
EXTT13=
EXTT14=
PLAYORDER=
